<?xml version="1.0" standalone="no"?>
<!DOCTYPE svg PUBLIC "-//W3C//DTD SVG 20010904//EN"
 "http://www.w3.org/TR/2001/REC-SVG-20010904/DTD/svg10.dtd">
<svg version="1.0" xmlns="http://www.w3.org/2000/svg"
 width="700.000000pt" height="700.000000pt" viewBox="0 0 700.000000 700.000000"
 preserveAspectRatio="xMidYMid meet">
<metadata>
Created by potrace 1.14, written by Peter Selinger 2001-2017
</metadata>
<g transform="translate(0.000000,700.000000) scale(0.100000,-0.100000)"
fill="#000000" stroke="none">
<path d="M3230 6713 c-613 -63 -1209 -351 -1660 -803 -428 -429 -692 -972
-782 -1610 -20 -147 -17 -604 5 -750 46 -292 132 -578 246 -815 90 -188 157
-294 307 -493 l127 -167 -7 -626 c-6 -515 -5 -627 6 -636 19 -16 543 -261 573
-269 l25 -6 0 206 0 206 150 0 150 0 0 -243 0 -244 118 -36 c161 -50 401 -107
448 -107 12 0 14 45 14 260 l0 260 138 0 137 0 -2 -280 -2 -280 279 0 280 0 2
278 3 277 138 3 137 3 0 -261 c0 -244 1 -261 18 -256 9 3 48 10 87 16 70 11
312 68 404 96 l51 15 0 249 0 250 155 0 155 0 0 -200 c0 -142 3 -200 11 -200
34 0 546 221 587 253 11 9 12 122 6 642 l-7 632 35 39 c19 21 68 83 107 137
293 396 459 798 538 1297 28 177 25 624 -5 815 -107 686 -436 1273 -957 1709
-427 358 -884 561 -1418 631 -108 14 -490 19 -597 8z m605 -637 c430 -78 843
-293 1144 -596 320 -322 520 -713 603 -1179 30 -169 32 -516 5 -690 -69 -434
-239 -786 -570 -1179 -43 -51 -83 -107 -88 -125 -5 -17 -9 -186 -9 -374 l0
-343 -150 0 -150 0 0 90 0 90 -277 -2 -278 -3 -3 -153 -3 -153 -147 3 -147 3
-3 146 -3 146 -249 7 c-137 4 -254 5 -260 1 -6 -4 -10 -65 -10 -156 l0 -149
-150 0 -150 0 0 150 0 150 -280 0 -280 0 0 -85 0 -85 -150 0 -150 0 0 368 0
368 -81 90 c-414 459 -609 947 -609 1524 0 351 67 640 220 955 210 432 548
775 970 985 234 117 415 170 725 214 71 10 444 -3 530 -18z"/>
<path d="M3310 5819 c-287 -35 -617 -162 -850 -326 -138 -97 -329 -292 -419
-427 -237 -357 -344 -768 -300 -1164 49 -452 231 -823 469 -955 36 -19 118
-54 182 -76 212 -73 218 -79 218 -231 0 -182 40 -259 168 -322 l67 -33 645 0
645 0 68 33 c80 40 139 106 162 184 8 27 18 98 21 156 9 137 18 147 165 192
350 108 526 311 649 750 87 313 92 595 15 895 -82 317 -234 583 -467 817 -257
256 -590 429 -948 493 -113 19 -384 28 -490 14z m-519 -1259 c139 -26 261
-120 323 -250 29 -60 31 -73 31 -175 0 -102 -2 -115 -31 -175 -91 -193 -297
-298 -479 -245 -170 49 -298 209 -319 400 -19 167 77 338 229 410 90 42 157
52 246 35z m1623 -21 c111 -41 215 -151 251 -264 13 -43 16 -80 13 -154 -3
-89 -7 -105 -41 -175 -108 -218 -331 -300 -543 -200 -162 77 -266 278 -235
455 47 269 311 430 555 338z m-821 -1225 c26 -9 68 -36 96 -62 119 -112 132
-279 30 -381 -61 -61 -106 -74 -241 -69 -132 5 -180 23 -228 89 -80 111 -53
275 61 373 75 63 185 83 282 50z"/>
</g>
</svg>
