<?xml version="1.0" encoding="UTF-8" standalone="no" ?>
<!DOCTYPE svg PUBLIC "-//W3C//DTD SVG 1.1//EN" "http://www.w3.org/Graphics/SVG/1.1/DTD/svg11.dtd">
<svg xmlns="http://www.w3.org/2000/svg" xmlns:xlink="http://www.w3.org/1999/xlink" version="1.1" width="1080" height="1080" viewBox="0 0 1080 1080" xml:space="preserve">
<desc>Created with Fabric.js 5.2.4</desc>
<defs>
</defs>
<g transform="matrix(1 0 0 1 540 540)" id="f1c2e2f4-b30f-45e1-8f5b-9e5fb7682587"  >
<rect style="stroke: none; stroke-width: 1; stroke-dasharray: none; stroke-linecap: butt; stroke-dashoffset: 0; stroke-linejoin: miter; stroke-miterlimit: 4; fill: rgb(255,255,255); fill-rule: nonzero; opacity: 1; visibility: hidden;" vector-effect="non-scaling-stroke"  x="-540" y="-540" rx="0" ry="0" width="1080" height="1080" />
</g>
<g transform="matrix(1 0 0 1 540 540)" id="76291d21-b894-4cc1-8d58-b41e34dc0118"  >
</g>
<g transform="matrix(2.15 0 0 2.15 540 540)"  >
<g style="" vector-effect="non-scaling-stroke"   >
		<g transform="matrix(1 0 0 1 0 0)"  >
<path style="stroke: none; stroke-width: 1; stroke-dasharray: none; stroke-linecap: butt; stroke-dashoffset: 0; stroke-linejoin: miter; stroke-miterlimit: 4; fill: rgb(180,149,102); fill-rule: nonzero; opacity: 1;" vector-effect="non-scaling-stroke"  transform=" translate(-256.06, -254.73)" d="M 263.312 485.93 L 235.68 485.573 C 236.77 481.434 236.214 476.061 236.221 471.791 L 236.325 445.521 L 216.588 445.403 L 216.427 483.21 C 206.461 481.415 196.655 479.337 186.928 476.488 L 175.094 472.541 L 175.192 437.662 C 172.889 437.289 170.125 437.554 167.77 437.548 L 153.263 437.583 L 153.361 467.622 C 152.223 466.964 150.925 466.873 149.703 466.414 L 121.878 453.187 C 117.955 451.247 113.712 449.609 109.947 447.404 L 110.083 376.621 C 110.082 374.005 110.528 356.893 110.028 355.856 C 109.65 355.072 108.489 354.302 107.884 353.636 L 92.6536 333.255 C 47.2696 264.794 49.434 172.595 96.9596 105.906 C 130.548 58.7746 187.804 25.6631 245.942 23.5643 L 261.722 23.4881 C 275.497 23.5453 289.627 25.751 302.964 29.1392 C 340.924 38.7828 374.113 59.6682 400.524 88.2448 C 464.507 157.473 469.375 266.479 413.493 341.82 L 407.812 349.457 C 406.482 351.235 405.146 353.148 403.501 354.645 L 402.8 355.299 C 400.838 357.36 402.036 363.971 402.04 366.692 L 402.156 448.079 C 401.231 449.173 400 449.285 398.728 449.812 L 370.05 462.927 L 358.761 466.925 L 359.013 437.701 L 336.487 437.521 L 336.515 473.3 C 334.593 474.599 311.335 480.151 308.446 480.745 C 304.467 481.564 300.321 481.866 296.391 482.777 L 296.341 450.319 C 296.345 448.812 296.471 447.18 296.277 445.691 L 276.578 445.66 C 276.12 449.902 276.488 454.582 276.486 458.869 L 276.48 485.575 C 272.307 486.229 267.573 485.859 263.312 485.93 Z M 246.511 68.2666 C 160.783 74.5333 98.2701 150.941 104.738 235.266 L 107.071 252.312 C 111.972 281.106 126.454 307.96 145.738 329.655 C 147.26 331.368 154.344 338.303 154.384 340.008 L 153.867 391.644 L 175.524 391.678 L 175.745 383.477 C 175.757 382.162 175.549 380.489 175.922 379.244 L 216.005 379.281 L 215.638 401.05 L 231.922 401.083 C 233.493 401.076 236.191 401.412 237.572 400.903 L 237.739 379.18 L 265.375 379.275 L 274.83 379.469 C 275.249 385.367 274.183 396.09 275.144 401.034 L 296.28 401.158 L 296.446 379.162 L 336.531 379.163 L 336.514 391.894 L 351.375 391.706 C 353.495 391.698 355.881 391.912 357.951 391.557 L 358.22 343.156 C 358.325 338.469 359.221 337.95 362.351 334.408 L 368.29 327.506 C 394.179 295.896 407.579 262.98 407.552 222.32 C 407.512 162.574 372.996 106.802 318.176 81.9704 C 302.105 74.6908 284.901 69.5004 267.213 68.4319 L 246.511 68.2666 Z" stroke-linecap="round" />
</g>
		<g transform="matrix(1 0 0 1 0.03 -39.66)"  >
<path style="stroke: none; stroke-width: 1; stroke-dasharray: none; stroke-linecap: butt; stroke-dashoffset: 0; stroke-linejoin: miter; stroke-miterlimit: 4; fill: rgb(180,149,102); fill-rule: nonzero; opacity: 1;" vector-effect="non-scaling-stroke"  transform=" translate(-256.09, -215.07)" d="M 260.375 342.466 L 216.281 342.443 C 205.294 342.352 193.946 336.066 192.391 324.377 C 190.483 310.038 197.298 306.507 180.489 301.117 C 171.591 298.264 162.721 295.505 155.748 288.928 C 135.691 270.008 127.51 232.421 129.321 205.125 C 131.23 176.364 144.406 146.664 164.623 125.875 C 186.297 103.588 221.138 88.0841 252.636 87.6796 L 263.957 87.761 C 331.607 91.6618 385.37 150.14 383.032 217.849 C 382.647 228.98 380.684 238.991 377.519 249.667 C 370.278 274.097 359.66 292.731 334.475 300.417 C 331.022 301.471 320.812 303.629 320.163 308.263 L 320.122 308.625 C 319.281 315.007 320.213 321.984 317.648 328.009 C 313.761 337.138 304.917 342.337 295.271 342.446 L 260.375 342.466 Z M 199.419 178.114 C 191.077 178.524 183.973 181.865 178.308 188.049 C 160.438 207.559 177.098 241.907 203.177 240.526 C 211.788 239.494 219.027 235.213 224.394 228.378 C 240.599 207.741 225.957 178.123 199.419 178.114 Z M 310.769 178.112 C 302.2 178.627 295.135 181.803 289.404 188.303 C 271.472 208.639 285.331 239.714 311.898 240.333 C 338.641 239.522 351.214 204.195 331.35 186.073 C 325.691 180.91 318.495 177.791 310.769 178.112 Z M 252.523 266.816 C 228.857 272.022 228.977 304.718 251.875 304.986 L 259.562 304.992 C 263.874 305.284 267.443 303.891 270.689 301.078 C 284.542 289.072 272.933 267.221 256.358 266.679 L 252.523 266.816 Z" stroke-linecap="round" />
</g>
</g>
</g>
</svg>